<svg xmlns="http://www.w3.org/2000/svg" viewBox="0 0 128 128">
  <defs>
    <linearGradient id="case" x1="18" x2="110" y1="15" y2="116" gradientUnits="userSpaceOnUse">
      <stop offset="0" stop-color="#6f3f1d"/>
      <stop offset=".48" stop-color="#2d1c16"/>
      <stop offset="1" stop-color="#15100e"/>
    </linearGradient>
    <linearGradient id="brass" x1="30" x2="100" y1="23" y2="104" gradientUnits="userSpaceOnUse">
      <stop offset="0" stop-color="#ffe08a"/>
      <stop offset=".44" stop-color="#c68a2e"/>
      <stop offset="1" stop-color="#6d431a"/>
    </linearGradient>
    <linearGradient id="screen" x1="39" x2="88" y1="54" y2="91" gradientUnits="userSpaceOnUse">
      <stop offset="0" stop-color="#143c38"/>
      <stop offset="1" stop-color="#071a18"/>
    </linearGradient>
  </defs>

  <rect width="128" height="128" rx="24" fill="url(#case)"/>
  <path d="M21 101h86l-8 12H29z" fill="#160d09" opacity=".55"/>

  <g fill="url(#brass)" stroke="#2a1710" stroke-width="4" stroke-linejoin="round">
    <path d="M29 58V43l35-22 35 22v15"/>
    <rect x="32" y="51" width="64" height="52" rx="8"/>
  </g>

  <rect x="42" y="61" width="44" height="30" rx="4" fill="url(#screen)" stroke="#2a1710" stroke-width="4"/>
  <path d="m51 72 7 6-7 6" fill="none" stroke="#66f0c8" stroke-width="5" stroke-linecap="round" stroke-linejoin="round"/>
  <path d="M64 85h13" stroke="#66f0c8" stroke-width="5" stroke-linecap="round"/>

  <g fill="#e2a53d" stroke="#2a1710" stroke-width="3">
    <circle cx="31" cy="42" r="6"/>
    <circle cx="97" cy="42" r="6"/>
    <circle cx="34" cy="101" r="5"/>
    <circle cx="94" cy="101" r="5"/>
  </g>

  <g transform="translate(87 24)">
    <path d="M13 0h6l2 6 6-1 3 5-4 5 4 5-3 5-6-1-2 6h-6l-2-6-6 1-3-5 4-5-4-5 3-5 6 1z" fill="#d49a34" stroke="#2a1710" stroke-width="3" stroke-linejoin="round"/>
    <circle cx="16" cy="15" r="6" fill="#4a2a16" stroke="#2a1710" stroke-width="3"/>
  </g>

  <g transform="translate(14 75)">
    <path d="M10 0h5l1 5 5 1v5l-5 1-1 5h-5l-1-5-5-1V6l5-1z" fill="#bb7f2a" stroke="#2a1710" stroke-width="3" stroke-linejoin="round"/>
    <circle cx="12.5" cy="8.5" r="3.5" fill="#2b1a11"/>
  </g>

  <path d="M43 44h42" stroke="#ffe0a0" stroke-width="4" stroke-linecap="round" opacity=".55"/>
  <path d="M36 53c8-8 49-8 57 0" fill="none" stroke="#f2bf63" stroke-width="3" stroke-linecap="round" opacity=".65"/>
</svg>
